<?xml version="1.0" encoding="UTF-8"?>
<!DOCTYPE svg PUBLIC "-//W3C//DTD SVG 1.1//EN" "http://www.w3.org/Graphics/SVG/1.1/DTD/svg11.dtd">
<!-- Creator: CorelDRAW 2019 (64-Bit) -->
<svg xmlns="http://www.w3.org/2000/svg" xml:space="preserve" width="5.1174mm" height="5.1175mm" version="1.1" style="shape-rendering:geometricPrecision; text-rendering:geometricPrecision; image-rendering:optimizeQuality; fill-rule:evenodd; clip-rule:evenodd"
viewBox="0 0 1.56 1.56"
 xmlns:xlink="http://www.w3.org/1999/xlink"
 xmlns:xodm="http://www.corel.com/coreldraw/odm/2003">
 <defs>
  <style type="text/css">
   <![CDATA[
    .str0 {stroke:#95C12E;stroke-width:0.1;stroke-miterlimit:10}
    .fil1 {fill:none;fill-rule:nonzero}
    .fil0 {fill:#FEFEFE;fill-rule:nonzero}
    .fil2 {fill:#95C12E;fill-rule:nonzero}
   ]]>
  </style>
 </defs>
 <g id="Layer_x0020_1">
  <metadata id="CorelCorpID_0Corel-Layer"/>
  <g id="_2455960295856">
   <path class="fil0" d="M1.51 0.78c0,0.4 -0.33,0.73 -0.73,0.73 -0.4,0 -0.73,-0.33 -0.73,-0.73 0,-0.4 0.33,-0.73 0.73,-0.73 0.4,0 0.73,0.33 0.73,0.73z"/>
   <path class="fil1 str0" d="M1.51 0.78c0,0.4 -0.33,0.73 -0.73,0.73 -0.4,0 -0.73,-0.33 -0.73,-0.73 0,-0.4 0.33,-0.73 0.73,-0.73 0.4,0 0.73,0.33 0.73,0.73z"/>
   <path class="fil2" d="M0.59 0.55c0,0.06 -0.05,0.1 -0.1,0.1 -0.06,0 -0.1,-0.05 -0.1,-0.1 0,-0.06 0.05,-0.1 0.1,-0.1 0.06,0 0.1,0.05 0.1,0.1z"/>
   <path class="fil2" d="M1.17 0.55c0,0.06 -0.05,0.1 -0.1,0.1 -0.06,0 -0.1,-0.05 -0.1,-0.1 0,-0.06 0.05,-0.1 0.1,-0.1 0.06,0 0.1,0.05 0.1,0.1z"/>
   <path class="fil2" d="M1.17 0.98c0.03,0.02 0.03,0.06 0.01,0.09 -0.1,0.11 -0.23,0.17 -0.37,0.17 -0.15,0 -0.28,-0.06 -0.37,-0.17 -0.02,-0.03 -0.02,-0.07 0.01,-0.09 0,-0 0,-0 0,-0 0.02,-0.02 0.06,-0.01 0.08,0.01 0.15,0.17 0.42,0.17 0.58,0 0.02,-0.02 0.05,-0.03 0.08,-0.01 0,0 0,0 0,0z"/>
  </g>
 </g>
</svg>
