<svg xmlns="http://www.w3.org/2000/svg" xmlns:xlink="http://www.w3.org/1999/xlink" width="24" height="24" viewBox="0 0 24 24">
  <defs>
    <linearGradient id="linear-gradient" x1="0.616" y1="0.137" x2="0.213" y2="0.916" gradientUnits="objectBoundingBox">
      <stop offset="0" stop-color="#ffd75f"/>
      <stop offset="1" stop-color="#ffbf00"/>
    </linearGradient>
  </defs>
  <g id="ico-stars" fill="url(#linear-gradient)">
    <path d="M 16.4079418182373 21.22177314758301 C 16.12689018249512 21.22180366516113 15.85704135894775 21.14073371887207 15.60589122772217 20.98080444335938 L 13.34280109405518 19.53972434997559 C 12.94085121154785 19.28377342224121 12.47652053833008 19.14848327636719 12.00000095367432 19.14848327636719 C 11.52347087860107 19.14848327636719 11.05914115905762 19.28377342224121 10.65720081329346 19.53972434997559 L 8.394110679626465 20.98080444335938 C 8.143011093139648 21.14069366455078 7.873140811920166 21.22177314758301 7.592000961303711 21.22177314758301 C 7.140060901641846 21.22177314758301 6.697091102600098 21.0057430267334 6.407061100006104 20.64389419555664 C 6.123260974884033 20.28981399536133 6.022881031036377 19.84414291381836 6.124411106109619 19.38897323608398 L 6.798271179199219 16.36798286437988 C 6.993451118469238 15.49295330047607 6.702291011810303 14.57506370544434 6.038421154022217 13.97251415252686 L 3.719900846481323 11.86819362640381 C 3.184381008148193 11.3821439743042 3.15510106086731 10.72871398925781 3.306280851364136 10.27926349639893 C 3.457450866699219 9.829813957214355 3.875670909881592 9.32689380645752 4.596070766448975 9.263273239135742 L 7.459240913391113 9.010443687438965 C 8.40354061126709 8.927063941955566 9.208770751953125 8.32845401763916 9.560690879821777 7.448203563690186 L 10.60719108581543 4.830663681030273 C 10.88521099090576 4.135273933410645 11.50896072387695 3.887503623962402 12.00000095367432 3.887503623962402 C 12.49104118347168 3.887503623962402 13.11479091644287 4.135273933410645 13.3928108215332 4.830653667449951 L 14.43930053710938 7.448203563690186 C 14.79122066497803 8.32845401763916 15.59645080566406 8.927063941955566 16.54075050354004 9.010443687438965 L 19.4039306640625 9.263273239135742 C 20.12433052062988 9.32689380645752 20.54255104064941 9.829813957214355 20.69372177124023 10.27926349639893 C 20.84490013122559 10.72871398925781 20.81562042236328 11.3821439743042 20.28010177612305 11.86819362640381 L 17.96158027648926 13.97251415252686 C 17.29771041870117 14.57506370544434 17.00655174255371 15.49295330047607 17.20173072814941 16.36798286437988 L 17.87559127807617 19.38897323608398 C 17.97710037231445 19.84403419494629 17.87673187255859 20.28963279724121 17.59297180175781 20.6436939239502 C 17.30292129516602 21.00561332702637 16.85992050170898 21.22171401977539 16.4079418182373 21.22177314758301 Z" stroke="none"/>
    <path d="M 12.00000095367432 4.387504577636719 C 11.84115123748779 4.387504577636719 11.30471134185791 4.432844161987305 11.07146072387695 5.016273498535156 L 10.0249605178833 7.633823394775391 C 9.6026611328125 8.690113067626953 8.636381149291992 9.408453941345215 7.50322151184082 9.508503913879395 L 4.640050888061523 9.761333465576172 C 4.03563117980957 9.814713478088379 3.829090118408203 10.29326343536377 3.780191421508789 10.43866348266602 C 3.731281280517578 10.58406352996826 3.606630325317383 11.09015369415283 4.055931091308594 11.49795341491699 L 6.374460220336914 13.60227394104004 C 7.171100616455078 14.32533359527588 7.520490646362305 15.42680358886719 7.286270141601563 16.47684478759766 L 6.612411499023438 19.49783325195313 C 6.525480270385742 19.8875846862793 6.664920806884766 20.1661434173584 6.797210693359375 20.33118438720703 C 6.993240356445313 20.57576370239258 7.290361404418945 20.72177314758301 7.592000961303711 20.72177314758301 C 7.776460647583008 20.72177314758301 7.95598030090332 20.66702270507813 8.125551223754883 20.55905342102051 L 10.38863086700439 19.11797332763672 C 10.87097072601318 18.81083297729492 11.42817115783691 18.64848327636719 12.00000095367432 18.64848327636719 C 12.57181072235107 18.64848327636719 13.1290111541748 18.81082344055176 13.61136054992676 19.11797332763672 L 15.87444114685059 20.55904388427734 C 16.04402160644531 20.66702270507813 16.22352981567383 20.72177314758301 16.40800094604492 20.72177314758301 C 16.70959091186523 20.72177314758301 17.00669097900391 20.57574462890625 17.2027416229248 20.33114433288574 C 17.33504104614258 20.16608428955078 17.47451019287109 19.88751411437988 17.3875904083252 19.49783325195313 L 16.71372985839844 16.47684478759766 C 16.47951126098633 15.42680358886719 16.82890129089355 14.32533359527588 17.62555122375488 13.60227394104004 L 19.94407081604004 11.49795341491699 C 20.39336013793945 11.090163230896 20.26872062683105 10.58406352996826 20.21981048583984 10.43866348266602 C 20.17090034484863 10.29326343536377 19.9643611907959 9.814713478088379 19.35995101928711 9.761333465576172 L 16.49677085876465 9.508503913879395 C 15.36361122131348 9.408453941345215 14.39733123779297 8.690113067626953 13.97503089904785 7.633823394775391 L 12.92854118347168 5.016273498535156 C 12.69528102874756 4.432844161987305 12.15885066986084 4.387504577636719 12.00000095367432 4.387504577636719 M 12.00000095367432 3.387504577636719 C 12.76095390319824 3.387504577636719 13.52190589904785 3.806684494018555 13.85708141326904 4.645044326782227 L 14.90357112884521 7.262594223022461 C 15.18352127075195 7.962823867797852 15.83354091644287 8.446054458618164 16.58473205566406 8.512384414672852 L 19.44791030883789 8.765213012695313 C 21.18494033813477 8.918603897094727 21.90739059448242 11.06647396087646 20.61614036560059 12.23843383789063 L 18.29762077331543 14.34275341033936 C 17.76531982421875 14.82588386535645 17.53324127197266 15.55751323699951 17.68974113464355 16.25913238525391 L 18.36360168457031 19.28012466430664 C 18.66233444213867 20.61939811706543 17.59916877746582 21.72176933288574 16.40799903869629 21.72176933288574 C 16.05149841308594 21.72176933288574 15.68373775482178 21.62313652038574 15.33733081817627 21.40255355834961 L 13.07424068450928 19.96147346496582 C 12.74655628204346 19.7528133392334 12.37327575683594 19.64848327636719 11.99999713897705 19.64848327636719 C 11.62671852111816 19.64848327636719 11.25344085693359 19.7528133392334 10.92576122283936 19.96147346496582 L 8.662671089172363 21.40255355834961 C 8.31635570526123 21.62307739257813 7.948415756225586 21.72176933288574 7.592002868652344 21.72176933288574 C 6.400718688964844 21.72176933288574 5.337644577026367 20.61950302124023 5.63640022277832 19.28012466430664 L 6.310260772705078 16.25913238525391 C 6.466760635375977 15.55751323699951 6.23468017578125 14.82588386535645 5.702381134033203 14.34275341033936 L 3.383861541748047 12.23843383789063 C 2.092611312866211 11.06647396087646 2.81505012512207 8.918603897094727 4.552091598510742 8.765213012695313 L 7.415260314941406 8.512384414672852 C 8.166460990905762 8.446054458618164 8.816471099853516 7.962823867797852 9.096421241760254 7.262594223022461 L 10.14292049407959 4.645044326782227 C 10.47809600830078 3.806684494018555 11.23904800415039 3.387504577636719 12.00000095367432 3.387504577636719 Z" stroke="none" fill="#ffdc72"/>
  </g>
</svg>
