<?xml version="1.0" encoding="UTF-8"?>
<!DOCTYPE svg PUBLIC "-//W3C//DTD SVG 1.1//EN" "http://www.w3.org/Graphics/SVG/1.1/DTD/svg11.dtd">
<!-- Creator: CorelDRAW 2019 (64-Bit) -->
<svg xmlns="http://www.w3.org/2000/svg" xml:space="preserve" width="5.1175mm" height="5.1175mm" version="1.1" style="shape-rendering:geometricPrecision; text-rendering:geometricPrecision; image-rendering:optimizeQuality; fill-rule:evenodd; clip-rule:evenodd"
viewBox="0 0 1.57 1.57"
 xmlns:xlink="http://www.w3.org/1999/xlink"
 xmlns:xodm="http://www.corel.com/coreldraw/odm/2003">
 <defs>
  <style type="text/css">
   <![CDATA[
    .str0 {stroke:#F9B33E;stroke-width:0.1;stroke-miterlimit:10}
    .fil1 {fill:none;fill-rule:nonzero}
    .fil0 {fill:#FEFEFE;fill-rule:nonzero}
    .fil2 {fill:#F9B33E;fill-rule:nonzero}
   ]]>
  </style>
 </defs>
 <g id="Layer_x0020_1">
  <metadata id="CorelCorpID_0Corel-Layer"/>
  <g id="_2455961099504">
   <path class="fil0" d="M1.52 0.78c0,0.4 -0.33,0.73 -0.73,0.73 -0.4,0 -0.73,-0.33 -0.73,-0.73 0,-0.4 0.33,-0.73 0.73,-0.73 0.4,0 0.73,0.33 0.73,0.73z"/>
   <path class="fil1 str0" d="M1.52 0.78c0,0.4 -0.33,0.73 -0.73,0.73 -0.4,0 -0.73,-0.33 -0.73,-0.73 0,-0.4 0.33,-0.73 0.73,-0.73 0.4,0 0.73,0.33 0.73,0.73z"/>
   <path class="fil2" d="M0.6 0.55c0,0.06 -0.05,0.1 -0.1,0.1 -0.06,0 -0.1,-0.05 -0.1,-0.1 0,-0.06 0.05,-0.1 0.1,-0.1 0.06,0 0.1,0.05 0.1,0.1z"/>
   <path class="fil2" d="M1.18 0.55c0,0.06 -0.05,0.1 -0.1,0.1 -0.06,0 -0.1,-0.05 -0.1,-0.1 0,-0.06 0.05,-0.1 0.1,-0.1 0.06,0 0.1,0.05 0.1,0.1z"/>
   <path class="fil2" d="M1.02 1.16l-0.48 0c-0.03,0 -0.05,-0.02 -0.05,-0.05l0 -0.01c0,-0.03 0.02,-0.05 0.05,-0.05l0.48 0c0.03,0 0.05,0.02 0.05,0.05l0 0.01c0,0.03 -0.02,0.05 -0.05,0.05z"/>
  </g>
 </g>
</svg>
