<?xml version="1.0" encoding="UTF-8"?>
<!DOCTYPE svg PUBLIC "-//W3C//DTD SVG 1.1//EN" "http://www.w3.org/Graphics/SVG/1.1/DTD/svg11.dtd">
<!-- Creator: CorelDRAW 2019 (64-Bit) -->
<svg xmlns="http://www.w3.org/2000/svg" xml:space="preserve" width="5.1175mm" height="5.1175mm" version="1.1" style="shape-rendering:geometricPrecision; text-rendering:geometricPrecision; image-rendering:optimizeQuality; fill-rule:evenodd; clip-rule:evenodd"
viewBox="0 0 1.58 1.58"
 xmlns:xlink="http://www.w3.org/1999/xlink"
 xmlns:xodm="http://www.corel.com/coreldraw/odm/2003">
 <defs>
  <style type="text/css">
   <![CDATA[
    .str0 {stroke:#DE4B62;stroke-width:0.1;stroke-miterlimit:10}
    .fil1 {fill:none;fill-rule:nonzero}
    .fil0 {fill:#FEFEFE;fill-rule:nonzero}
    .fil2 {fill:#DE4B62;fill-rule:nonzero}
   ]]>
  </style>
 </defs>
 <g id="Layer_x0020_1">
  <metadata id="CorelCorpID_0Corel-Layer"/>
  <g id="_2455956485152">
   <path class="fil0" d="M1.53 0.79c0,0.41 -0.33,0.74 -0.74,0.74 -0.41,0 -0.74,-0.33 -0.74,-0.74 0,-0.41 0.33,-0.74 0.74,-0.74 0.41,0 0.74,0.33 0.74,0.74z"/>
   <path class="fil1 str0" d="M1.53 0.79c0,0.41 -0.33,0.74 -0.74,0.74 -0.41,0 -0.74,-0.33 -0.74,-0.74 0,-0.41 0.33,-0.74 0.74,-0.74 0.41,0 0.74,0.33 0.74,0.74z"/>
   <path class="fil2" d="M0.6 0.56c0,0.06 -0.05,0.1 -0.1,0.1 -0.06,0 -0.1,-0.05 -0.1,-0.1 0,-0.06 0.05,-0.1 0.1,-0.1 0.06,0 0.1,0.05 0.1,0.1z"/>
   <path class="fil2" d="M1.18 0.56c0,0.06 -0.05,0.1 -0.1,0.1 -0.06,0 -0.1,-0.05 -0.1,-0.1 0,-0.06 0.05,-0.1 0.1,-0.1 0.06,0 0.1,0.05 0.1,0.1z"/>
   <path class="fil2" d="M0.44 1.18c-0.03,-0.02 -0.03,-0.06 -0.01,-0.09 0.1,-0.11 0.23,-0.17 0.38,-0.17 0.15,0 0.28,0.06 0.38,0.17 0.02,0.03 0.02,0.07 -0.01,0.09 -0,0 -0,0 -0,0 -0.02,0.02 -0.06,0.01 -0.08,-0.01 -0.16,-0.17 -0.43,-0.17 -0.58,0 -0.02,0.02 -0.05,0.03 -0.08,0.01 -0,-0 -0,-0 -0,-0z"/>
  </g>
 </g>
</svg>
