<?xml version="1.0" encoding="UTF-8"?>
<!DOCTYPE svg PUBLIC "-//W3C//DTD SVG 1.1//EN" "http://www.w3.org/Graphics/SVG/1.1/DTD/svg11.dtd">
<!-- Creator: CorelDRAW 2019 (64-Bit) -->
<svg xmlns="http://www.w3.org/2000/svg" xml:space="preserve" width="5.1175mm" height="5.1175mm" version="1.1" style="shape-rendering:geometricPrecision; text-rendering:geometricPrecision; image-rendering:optimizeQuality; fill-rule:evenodd; clip-rule:evenodd"
viewBox="0 0 1.59 1.59"
 xmlns:xlink="http://www.w3.org/1999/xlink"
 xmlns:xodm="http://www.corel.com/coreldraw/odm/2003">
 <defs>
  <style type="text/css">
   <![CDATA[
    .str0 {stroke:#BE282F;stroke-width:0.1;stroke-miterlimit:10}
    .fil1 {fill:none;fill-rule:nonzero}
    .fil0 {fill:#FEFEFE;fill-rule:nonzero}
    .fil2 {fill:#BE282F;fill-rule:nonzero}
   ]]>
  </style>
 </defs>
 <g id="Layer_x0020_1">
  <metadata id="CorelCorpID_0Corel-Layer"/>
  <g id="_2455961104560">
   <path class="fil0" d="M1.54 0.79c0,0.41 -0.33,0.74 -0.74,0.74 -0.41,0 -0.74,-0.33 -0.74,-0.74 0,-0.41 0.33,-0.74 0.74,-0.74 0.41,0 0.74,0.33 0.74,0.74z"/>
   <path class="fil1 str0" d="M1.54 0.79c0,0.41 -0.33,0.74 -0.74,0.74 -0.41,0 -0.74,-0.33 -0.74,-0.74 0,-0.41 0.33,-0.74 0.74,-0.74 0.41,0 0.74,0.33 0.74,0.74z"/>
   <path class="fil2" d="M0.61 0.56c0,0.06 -0.05,0.11 -0.11,0.11 -0.06,0 -0.11,-0.05 -0.11,-0.11 0,-0.06 0.05,-0.11 0.11,-0.11 0.06,0 0.11,0.05 0.11,0.11z"/>
   <path class="fil2" d="M1.19 0.56c0,0.06 -0.05,0.11 -0.11,0.11 -0.06,0 -0.11,-0.05 -0.11,-0.11 0,-0.06 0.05,-0.11 0.11,-0.11 0.06,0 0.11,0.05 0.11,0.11z"/>
   <path class="fil2" d="M0.77 0.84l0.04 0c0.15,0 0.27,0.12 0.27,0.27l0 0.04c0,0.01 -0.01,0.02 -0.02,0.02l-0.54 0c-0.01,0 -0.02,-0.01 -0.02,-0.02l0 -0.04c0,-0.15 0.12,-0.27 0.27,-0.27z"/>
  </g>
 </g>
</svg>
